<svg width="18" height="18" viewBox="0 0 18 18" fill="none" xmlns="http://www.w3.org/2000/svg">
<path d="M4.27083 0V1.70833H0.854167C0.382428 1.70833 0 2.09076 0 2.5625V16.2292C0 16.7009 0.382428 17.0833 0.854167 17.0833H7.47789C6.54011 15.9135 5.97917 14.4285 5.97917 12.8125C5.97917 9.03854 9.03854 5.97917 12.8125 5.97917C14.4285 5.97917 15.9135 6.54012 17.0833 7.47791V2.5625C17.0833 2.09076 16.7009 1.70833 16.2292 1.70833H12.8125V0H11.1042V1.70833H5.97917V0H4.27083ZM17.9375 12.8125C17.9375 15.643 15.643 17.9375 12.8125 17.9375C9.98205 17.9375 7.6875 15.643 7.6875 12.8125C7.6875 9.98205 9.98205 7.6875 12.8125 7.6875C15.643 7.6875 17.9375 9.98205 17.9375 12.8125ZM11.9583 9.39583V13.1663L13.9169 15.1248L15.1248 13.9169L13.6667 12.4587V9.39583H11.9583Z" fill="#989DBB"/>
</svg>
