<svg width="70" height="70" viewBox="0 0 70 70" fill="none" xmlns="http://www.w3.org/2000/svg">
<path d="M0 30C0 13.4315 13.4315 0 30 0H40C56.5685 0 70 13.4315 70 30V40C70 56.5685 56.5685 70 40 70H30C13.4315 70 0 56.5685 0 40V30Z" fill="#E8863B"/>
<path d="M25.5 30C25.5 26.9624 27.9624 24.5 31 24.5H42C45.0376 24.5 47.5 26.9624 47.5 30V42.0417C47.5 45.0792 45.0376 47.5417 42 47.5417H31C27.9624 47.5417 25.5 45.0792 25.5 42.0417V30Z" fill="#E8863B" stroke="white" stroke-width="3"/>
<path d="M36.25 31.8889C35.9062 31.8889 35.612 31.7475 35.3672 31.4646C35.1224 31.1817 35 30.8417 35 30.4444C35 30.0472 35.1224 29.7072 35.3672 29.4243C35.612 29.1414 35.9062 29 36.25 29C36.5938 29 36.888 29.1414 37.1328 29.4243C37.3776 29.7072 37.5 30.0472 37.5 30.4444C37.5 30.8417 37.3776 31.1817 37.1328 31.4646C36.888 31.7475 36.5938 31.8889 36.25 31.8889ZM36.25 42C35.9896 42 35.7682 41.8947 35.5859 41.684C35.4036 41.4734 35.3125 41.2176 35.3125 40.9167V34.4167C35.3125 34.1157 35.4036 33.86 35.5859 33.6493C35.7682 33.4387 35.9896 33.3333 36.25 33.3333C36.5104 33.3333 36.7318 33.4387 36.9141 33.6493C37.0964 33.86 37.1875 34.1157 37.1875 34.4167V40.9167C37.1875 41.2176 37.0964 41.4734 36.9141 41.684C36.7318 41.8947 36.5104 42 36.25 42Z" fill="white"/>
</svg>
